<svg width="36" height="18" viewBox="0 0 36 18" fill="none" xmlns="http://www.w3.org/2000/svg">
<path d="M34.9165 2.34783H8.90978C8.31741 2.34783 7.82617 1.81565 7.82617 1.17391C7.82617 0.532174 8.31741 0 8.90978 0H34.9165C35.5088 0 36.0001 0.532174 36.0001 1.17391C36.0001 1.81565 35.5088 2.34783 34.9165 2.34783Z" fill="white"/>
<path d="M34.9165 10.1739H8.90978C8.31741 10.1739 7.82617 9.64176 7.82617 9.00002C7.82617 8.35828 8.31741 7.82611 8.90978 7.82611H34.9165C35.5088 7.82611 36.0001 8.35828 36.0001 9.00002C36.0001 9.64176 35.5088 10.1739 34.9165 10.1739Z" fill="white"/>
<path d="M34.9165 18H8.90978C8.31741 18 7.82617 17.4678 7.82617 16.8261C7.82617 16.1843 8.31741 15.6522 8.90978 15.6522H34.9165C35.5088 15.6522 36.0001 16.1843 36.0001 16.8261C36.0001 17.4678 35.5088 18 34.9165 18Z" fill="white"/>
<circle cx="1.17391" cy="1.17391" r="1.17391" fill="white"/>
<circle cx="1.17391" cy="9.00002" r="1.17391" fill="white"/>
<circle cx="1.17391" cy="16.8261" r="1.17391" fill="white"/>
</svg>
